<svg
  id="Grupo_3619"
  data-name="Grupo 3619"
  xmlns="http://www.w3.org/2000/svg"
  width="5.146"
  height="18.868"
  viewBox="0 0 5.146 18.868">
  <g id="more-vertical">
    <path
      id="Trazado_1182"
      data-name="Trazado 1182"
      d="M9.527,4.2a.858.858,0,1,0-.858-.858A.858.858,0,0,0,9.527,4.2Zm0,6.861a.858.858,0,1,0-.858-.858A.858.858,0,0,0,9.527,11.065Zm0,6.861a.858.858,0,1,0-.858-.858A.858.858,0,0,0,9.527,17.926ZM12.1,3.346A2.573,2.573,0,1,1,9.527.773,2.573,2.573,0,0,1,12.1,3.346Zm0,6.861A2.573,2.573,0,1,1,9.527,7.634,2.573,2.573,0,0,1,12.1,10.207ZM9.527,19.641a2.573,2.573,0,1,0-2.573-2.573A2.573,2.573,0,0,0,9.527,19.641Z"
      transform="translate(-6.955 -0.773)"
      fill="#fff"
      fill-rule="evenodd" />
  </g>
</svg>
