<svg xmlns="http://www.w3.org/2000/svg" width="32" height="32" viewBox="0 0 32 32"><g id="icon" transform="translate(-1481 -619)"><circle id="circle" cx="16" cy="16" r="16" transform="translate(1481 619)" fill="#19bead"/><g id="Grupo_1715" data-name="Grupo 1715" transform="translate(82.458 374.372)"><g id="download" transform="translate(1407 254.5)"><path id="Trazado_1305" data-name="Trazado 1305" d="M.471,8a.471.471,0,0,1,.471.471v3.3a.943.943,0,0,0,.943.943H13.2a.943.943,0,0,0,.943-.943v-3.3a.471.471,0,0,1,.943,0v3.3A1.886,1.886,0,0,1,13.2,13.657H1.886A1.886,1.886,0,0,1,0,11.771v-3.3A.471.471,0,0,1,.471,8Z" transform="translate(0 -1.4)" fill="#fff" fill-rule="evenodd"/><path id="Trazado_1306" data-name="Trazado 1306" d="M4.992,7.492a.471.471,0,0,1,.667,0L7.82,9.653,9.982,7.492a.471.471,0,0,1,.667.667l-2.495,2.5a.471.471,0,0,1-.668,0l-2.494-2.5a.471.471,0,0,1,0-.667Z" transform="translate(-0.278 -1.363)" fill="#fff" fill-rule="evenodd"/><path id="Trazado_1307" data-name="Trazado 1307" d="M7.971,1a.471.471,0,0,1,.471.471V9.014a.471.471,0,0,1-.943,0V1.471A.471.471,0,0,1,7.971,1Z" transform="translate(-0.429 -1)" fill="#fff" fill-rule="evenodd"/></g></g></g></svg>