<svg xmlns="http://www.w3.org/2000/svg" width="32" height="32" viewBox="0 0 32 32"><g id="icon" transform="translate(-1481 -619)"><g id="circle" transform="translate(1481 619)" fill="#f0f1f4"><path d="M 16 31.5 C 11.85980033874512 31.5 7.967410087585449 29.88772010803223 5.039840221405029 26.96015930175781 C 2.112279891967773 24.03259086608887 0.5 20.14019966125488 0.5 16 C 0.5 11.85980033874512 2.112279891967773 7.967410087585449 5.039840221405029 5.039840221405029 C 7.967410087585449 2.112279891967773 11.85980033874512 0.5 16 0.5 C 20.14019966125488 0.5 24.03259086608887 2.112279891967773 26.96015930175781 5.039840221405029 C 29.88772010803223 7.967410087585449 31.5 11.85980033874512 31.5 16 C 31.5 20.14019966125488 29.88772010803223 24.03259086608887 26.96015930175781 26.96015930175781 C 24.03259086608887 29.88772010803223 20.14019966125488 31.5 16 31.5 Z" stroke="none"/><path d="M 16 1 C 11.99334907531738 1 8.226520538330078 2.560270309448242 5.393400192260742 5.393400192260742 C 2.560270309448242 8.226520538330078 1 11.99334907531738 1 16 C 1 20.00664901733398 2.560270309448242 23.77347946166992 5.393400192260742 26.60659980773926 C 8.226520538330078 29.43972969055176 11.99334907531738 31 16 31 C 20.00664901733398 31 23.77347946166992 29.43972969055176 26.60659980773926 26.60659980773926 C 29.43972969055176 23.77347946166992 31 20.00664901733398 31 16 C 31 11.99334907531738 29.43972969055176 8.226520538330078 26.60659980773926 5.393400192260742 C 23.77347946166992 2.560270309448242 20.00664901733398 1 16 1 M 16 0 C 24.8365592956543 0 32 7.163440704345703 32 16 C 32 24.8365592956543 24.8365592956543 32 16 32 C 7.163440704345703 32 0 24.8365592956543 0 16 C 0 7.163440704345703 7.163440704345703 0 16 0 Z" stroke="none" fill="#fff"/></g><g id="Grupo_6140" data-name="Grupo 6140" transform="translate(82.458 374.372)" opacity="0.5"><g id="download" transform="translate(1407 254.5)"><path id="Trazado_3234" data-name="Trazado 3234" d="M.471,8a.471.471,0,0,1,.471.471v3.3a.943.943,0,0,0,.943.943H13.2a.943.943,0,0,0,.943-.943v-3.3a.471.471,0,0,1,.943,0v3.3A1.886,1.886,0,0,1,13.2,13.657H1.886A1.886,1.886,0,0,1,0,11.771v-3.3A.471.471,0,0,1,.471,8Z" transform="translate(0 -1.4)" fill="#1b2b3c" fill-rule="evenodd"/><path id="Trazado_3235" data-name="Trazado 3235" d="M4.992,7.492a.471.471,0,0,1,.667,0L7.82,9.653,9.982,7.492a.471.471,0,0,1,.667.667l-2.495,2.5a.471.471,0,0,1-.668,0l-2.494-2.5a.471.471,0,0,1,0-.667Z" transform="translate(-0.278 -1.363)" fill="#1b2b3c" fill-rule="evenodd"/><path id="Trazado_3236" data-name="Trazado 3236" d="M7.971,1a.471.471,0,0,1,.471.471V9.014a.471.471,0,0,1-.943,0V1.471A.471.471,0,0,1,7.971,1Z" transform="translate(-0.429 -1)" fill="#1b2b3c" fill-rule="evenodd"/></g></g></g></svg>