<svg xmlns="http://www.w3.org/2000/svg" viewBox="0 0 28.32 25.728">
  <g transform="translate(-1622 -795)" opacity="0.5">
    <path
      d="M20.024,20.908a.888.888,0,0,1-.888.888H6.707c-.2,0-.382.178-.542.293l-3.01,2.37v-14.2a.888.888,0,0,1,.888-.888H7.471V7.592H4.044A2.663,2.663,0,0,0,1.38,10.255v15.98a.888.888,0,0,0,.5.79.888.888,0,0,0,.888-.089l4.572-3.365H19.269a2.459,2.459,0,0,0,2.53-2.548v-1H20.024Z"
      transform="translate(1620.62 793.623)"
      fill="#1e2b3b" />
    <path
      d="M25.347,2.761H10.255A2.663,2.663,0,0,0,7.592,5.424V16.078a2.663,2.663,0,0,0,2.663,2.663h12.03l4.244,3.294a.869.869,0,0,0,1.394-.7V5.424a2.663,2.663,0,0,0-2.575-2.663Zm.888,16.815-3.107-2.424a.888.888,0,0,0-.542-.186H10.255a.888.888,0,0,1-.888-.888V5.424a.888.888,0,0,1,.888-.888H25.347a.977.977,0,0,1,.888.941Z"
      transform="translate(1622.398 792.24)"
      fill="#1e2b3b" />
  </g>
</svg>
