<svg xmlns="http://www.w3.org/2000/svg" viewBox="0 0 29.063 29.057">
  <g transform="translate(0.5 0.5)">
    <g transform="translate(-1008.819 -3232.373)" opacity="0.5">
      <g transform="translate(1008.819 3232.373)">
        <g transform="translate(5.451 16.347)">
          <path
            d="M1021.944,3265.885h-1.817a2.225,2.225,0,0,1-2.223-2.222v-3.633a.406.406,0,0,1,.812,0v3.633a1.412,1.412,0,0,0,1.411,1.41h1.817a.406.406,0,0,1,0,.812Zm0-.225h0Z"
            transform="translate(-1017.905 -3259.624)"
            fill="#1e2b3b"
            stroke="#1e2b3b"
            stroke-width="1" />
        </g>
        <g transform="translate(18.167 5.449)">
          <path
            d="M1043.144,3247.718a.407.407,0,0,1-.406-.406v-3.633a1.412,1.412,0,0,0-1.41-1.41h-1.817a.406.406,0,1,1,0-.812h1.817a2.225,2.225,0,0,1,2.223,2.222v3.633A.407.407,0,0,1,1043.144,3247.718Z"
            transform="translate(-1039.104 -3241.457)"
            fill="#1e2b3b"
            stroke="#1e2b3b"
            stroke-width="1" />
        </g>
        <g transform="translate(6.54 5.449)">
          <path
            d="M1023.4,3247.718a.406.406,0,0,1-.394-.308l-1.241-4.964-1.241,4.964a.407.407,0,0,1-.492.295.407.407,0,0,1-.3-.492l1.3-5.185a.755.755,0,0,1,1.465,0l1.3,5.185a.405.405,0,0,1-.3.492A.383.383,0,0,1,1023.4,3247.718Zm.176-.451h0Z"
            transform="translate(-1019.721 -3241.457)"
            fill="#1e2b3b"
            stroke="#1e2b3b"
            stroke-width="1" />
        </g>
        <g transform="translate(7.071 8.777)">
          <path
            d="M1023.221,3247.816h-2.209a.406.406,0,1,1,0-.812h2.209a.406.406,0,0,1,0,.812Zm0-.224h0Z"
            transform="translate(-1020.606 -3247.005)"
            fill="#1e2b3b"
            stroke="#1e2b3b"
            stroke-width="1" />
        </g>
        <g transform="translate(17.441 16.347)">
          <path
            d="M1041.569,3265.885h-3.27a.406.406,0,0,1-.348-.615l2.9-4.834H1038.3a.406.406,0,1,1,0-.812h3.27a.406.406,0,0,1,.348.615l-2.9,4.834h2.553a.406.406,0,0,1,0,.812Zm0-.225h0Z"
            transform="translate(-1037.893 -3259.624)"
            fill="#1e2b3b"
            stroke="#1e2b3b"
            stroke-width="1" />
        </g>
        <g transform="translate(10.9 10.898)">
          <path
            d="M1040.113,3267.7h-9.083a4.044,4.044,0,0,1-4.04-4.038v-7.266a.406.406,0,0,1,.406-.406h1.816a3.231,3.231,0,0,0,3.228-3.226v-1.817a.406.406,0,0,1,.406-.406h7.266a4.044,4.044,0,0,1,4.04,4.039v9.082A4.044,4.044,0,0,1,1040.113,3267.7Zm-12.311-10.9v6.86a3.231,3.231,0,0,0,3.227,3.227h9.083a3.231,3.231,0,0,0,3.228-3.227v-9.082a3.23,3.23,0,0,0-3.228-3.226h-6.861v1.41a4.043,4.043,0,0,1-4.04,4.038Z"
            transform="translate(-1026.99 -3250.54)"
            fill="#1e2b3b"
            stroke="#1e2b3b"
            stroke-width="1" />
        </g>
        <path
          d="M1021.942,3249.532h-9.083a4.043,4.043,0,0,1-4.04-4.038v-9.082a4.044,4.044,0,0,1,4.04-4.039h9.083a4.044,4.044,0,0,1,4.039,4.039v9.082A4.043,4.043,0,0,1,1021.942,3249.532Zm-9.083-16.347a3.23,3.23,0,0,0-3.227,3.227v9.082a3.231,3.231,0,0,0,3.227,3.226h9.083a3.231,3.231,0,0,0,3.228-3.226v-9.082a3.231,3.231,0,0,0-3.228-3.227Z"
          transform="translate(-1008.819 -3232.373)"
          fill="#1e2b3b"
          stroke="#1e2b3b"
          stroke-width="1" />
      </g>
    </g>
  </g>
</svg>
