<svg id="Grupo_8262" data-name="Grupo 8262" xmlns="http://www.w3.org/2000/svg" width="18" height="18" viewBox="0 0 18 18">
    <g id="Trazado_1869" data-name="Trazado 1869" fill="#f0f1f4">
        <path d="M 9 17.5 C 4.313079833984375 17.5 0.5 13.68692016601562 0.5 9 C 0.5 4.313079833984375 4.313079833984375 0.5 9 0.5 C 13.68692016601562 0.5 17.5 4.313079833984375 17.5 9 C 17.5 13.68692016601562 13.68692016601562 17.5 9 17.5 Z" stroke="none"></path>
        <path d="M 9 1 C 4.588789939880371 1 1 4.588789939880371 1 9 C 1 13.41121006011963 4.588789939880371 17 9 17 C 13.41121006011963 17 17 13.41121006011963 17 9 C 17 4.588789939880371 13.41121006011963 1 9 1 M 9 0 C 13.97056007385254 0 18 4.029439926147461 18 9 C 18 13.97056007385254 13.97056007385254 18 9 18 C 4.029439926147461 18 0 13.97056007385254 0 9 C 0 4.029439926147461 4.029439926147461 0 9 0 Z" stroke="none" fill="#fff"></path>
    </g>
    <g id="Check" transform="translate(1 1)">
        <path id="Vector" d="M8,0A8,8,0,0,0,.154,9.561a16.79,16.79,0,0,0,1.1,2.747,12.286,12.286,0,0,0,1.085,1.349A8,8,0,1,0,8,0Zm4.547,6.07-5.02,5.693a.927.927,0,0,1-.64.31h-.06a.917.917,0,0,1-.617-.233L3.523,9.457A.931.931,0,1,1,4.76,8.063l2,1.763,4.4-5a.932.932,0,0,1,1.4,1.233Z" transform="translate(0)" fill="#19bead"></path>
    </g>
</svg>