<svg xmlns="http://www.w3.org/2000/svg" viewBox="0 0 28.517 26.622">
  <g transform="translate(1 1)">
    <g transform="translate(-1626 -634.095)" opacity="0.5">
      <path
        d="M2.067,10.247V27.766a.474.474,0,0,0,.474.474h8.05V10.247A.947.947,0,0,0,9.643,9.3H3.014A.947.947,0,0,0,2.067,10.247Z"
        transform="translate(1623.934 630.477)"
        fill="none"
        stroke="#1e2b3b"
        stroke-linecap="round"
        stroke-linejoin="round"
        stroke-width="2" />
      <path
        d="M19.889,3.1H12.313a.947.947,0,0,0-.947.947V27.721h9.47V4.047A.947.947,0,0,0,19.889,3.1Z"
        transform="translate(1623.157 630.995)"
        fill="none"
        stroke="#1e2b3b"
        stroke-linecap="round"
        stroke-linejoin="round"
        stroke-width="2" />
      <path
        d="M29.275,13.433H22.646a.947.947,0,0,0-.947.947v14.2h8.05a.474.474,0,0,0,.474-.474V14.38a.947.947,0,0,0-.947-.947Z"
        transform="translate(1622.294 630.132)"
        fill="none"
        stroke="#1e2b3b"
        stroke-linecap="round"
        stroke-linejoin="round"
        stroke-width="2" />
    </g>
  </g>
</svg>
