<svg xmlns="http://www.w3.org/2000/svg" viewBox="0 0 64.899 74.525">
  <g transform="translate(-54.997 118.208)" opacity="0.35">
    <path d="M119.9-106.775a11.324,11.324,0,0,0-11.185-11.433H66.232a11.324,11.324,0,0,0-11.185,11.433,11.326,11.326,0,0,0,11.1,11.432h1.693v-5.432h-1.6a5.944,5.944,0,0,1-5.871-6,5.944,5.944,0,0,1,5.871-6h42.479a5.943,5.943,0,0,1,5.87,6,5.943,5.943,0,0,1-5.87,6h-1.592v5.432h1.7A11.327,11.327,0,0,0,119.9-106.775Z" fill="#1b2b3c"/><path d="M115.2-91.445c-.2.089-.41.172-.618.251v14.341a27.87,27.87,0,0,1-7.947,19.614,26.665,26.665,0,0,1-19.188,8.124,26.663,26.663,0,0,1-19.187-8.124,27.871,27.871,0,0,1-7.948-19.614V-91.194c-.207-.079-.413-.162-.618-.251A16.272,16.272,0,0,1,55-94.532v17.679a33.592,33.592,0,0,0,2.551,12.912A33.112,33.112,0,0,0,64.5-53.4a32.309,32.309,0,0,0,10.314,7.107,31.633,31.633,0,0,0,12.631,2.608,31.634,31.634,0,0,0,12.632-2.608A32.331,32.331,0,0,0,110.392-53.4a33.129,33.129,0,0,0,6.953-10.543A33.611,33.611,0,0,0,119.9-76.853V-94.532A16.277,16.277,0,0,1,115.2-91.445Z" fill="#e8555c"/><path d="M101.805-106.446H96.49v49.5a21.236,21.236,0,0,0,5.315-3.561Z" fill="#1b2b3c"/><path d="M84.853-55.1a21.644,21.644,0,0,0,2.593.156A21.69,21.69,0,0,0,90.1-55.1V-95.253H84.853Z" fill="#1b2b3c"/>
    <path d="M73.152-106.446v46a21.227,21.227,0,0,0,5.314,3.532v-49.532Z" fill="#1b2b3c"/>
  </g>
</svg>